<?xml version="1.0" encoding="utf-8"?>
<!-- Generator: Adobe Illustrator 16.0.0, SVG Export Plug-In . SVG Version: 6.00 Build 0)  -->
<!DOCTYPE svg PUBLIC "-//W3C//DTD SVG 1.1//EN" "http://www.w3.org/Graphics/SVG/1.1/DTD/svg11.dtd">
<svg version="1.1" id="Calque_2" xmlns="http://www.w3.org/2000/svg" xmlns:xlink="http://www.w3.org/1999/xlink" x="0px" y="0px"
	 width="453.544px" height="453.543px" viewBox="0 0 453.544 453.543" enable-background="new 0 0 453.544 453.543"
	 xml:space="preserve">
<path fill="#44C2CF" d="M414.632,218.256c0-111.562-90.438-202-202-202c-95.541,0-175.581,66.333-196.601,155.454
	C41.909,89.989,118.349,30.756,208.632,30.756c111.562,0,202,90.438,202,202c0,16.02-1.874,31.601-5.398,46.545
	C411.332,260.041,414.632,239.535,414.632,218.256z"/>
<circle fill="#8A5B60" cx="199.132" cy="140.255" r="26.5"/>
<circle fill="#44C2CF" cx="332.854" cy="202.922" r="14.723"/>
<path fill="#8A5B60" d="M150.13,194.095c0,0,22.502,143.661-32.779,251.036c0,0,76.781-110.374,87.781-153.041
	c27.333,65.333,29.001,81.607,41.333,115.666c-4.666-52.997-15-208.997-15-208.997s58.999,5.003,113-73.664
	c-50.001,56-218.333,88.161-322.667-9.333C42.881,153.255,74.795,192.101,150.13,194.095z"/>
<path fill="#45C3CF" d="M313.632,234.255c0,0,10.5,86.165-45.5,176.498c0,0,48.778-61.999,64.723-108.666
	c0.277,49,3.277,70,4.277,88.333l19.667-153.334c0,0,34.333-2,57.833-38.333c-33.719,30.9-118.5,41.666-169.5-4.333
	C258.132,216.086,275.132,232.13,313.632,234.255z"/>
</svg>
